<?xml version="1.0" standalone="no"?>
<!DOCTYPE svg PUBLIC "-//W3C//DTD SVG 20010904//EN"
 "http://www.w3.org/TR/2001/REC-SVG-20010904/DTD/svg10.dtd">
<svg version="1.0" xmlns="http://www.w3.org/2000/svg"
 width="1200.000000pt" height="630.000000pt" viewBox="0 0 1200.000000 630.000000"
 preserveAspectRatio="xMidYMid meet">

<g transform="translate(0.000000,630.000000) scale(0.100000,-0.100000)"
fill="#000000" stroke="none">
<path d="M6670 3655 l0 -485 100 0 100 0 0 485 0 485 -100 0 -100 0 0 -485z"/>
<path d="M8380 3853 l0 -288 -21 43 c-47 95 -150 152 -274 152 -92 0 -152 -22
-216 -79 -166 -148 -131 -400 69 -498 50 -25 68 -28 152 -28 88 0 101 3 162
33 39 19 80 49 98 70 l30 37 0 -63 0 -62 100 0 100 0 0 88 0 87 30 -51 c58
-102 151 -151 267 -141 49 4 76 12 114 36 28 17 52 31 54 31 2 0 2 -11 0 -25
l-2 -25 98 0 99 0 0 210 0 210 35 0 35 0 0 -139 c0 -76 5 -153 11 -172 31 -90
104 -136 201 -125 29 3 106 9 171 12 l117 6 0 102 1 101 23 -45 c65 -124 194
-189 353 -177 122 9 215 64 285 167 17 24 17 23 17 -62 l1 -88 100 0 100 0 0
181 0 181 33 33 c41 41 77 52 118 34 61 -25 69 -53 69 -251 l0 -178 100 0 c85
0 100 2 100 16 0 11 5 14 18 9 61 -26 141 -45 187 -45 170 0 265 69 265 193 0
100 -41 145 -176 191 -70 23 -92 42 -81 70 8 21 94 22 144 1 19 -8 37 -15 39
-15 2 0 18 28 35 62 29 58 30 63 14 74 -56 41 -249 44 -327 5 -71 -34 -93 -71
-93 -155 l0 -68 46 -42 c26 -23 75 -53 109 -66 70 -28 91 -50 74 -77 -19 -31
-78 -28 -141 6 -61 33 -58 34 -91 -24 -17 -29 -17 -27 -22 140 -6 192 -13 215
-80 264 -86 62 -217 68 -294 13 l-45 -31 -3 27 -3 27 -97 3 -98 3 -1 -93 c0
-91 0 -92 -17 -68 -40 58 -98 111 -151 137 -51 25 -66 28 -166 28 -100 0 -115
-3 -166 -27 -69 -34 -121 -84 -154 -146 l-24 -47 -1 108 0 107 -150 0 -150 0
0 105 0 105 -100 0 -100 0 0 -105 0 -104 -132 -3 c-126 -3 -133 -4 -136 -24
-3 -20 -4 -20 -59 8 -74 37 -173 39 -248 4 -52 -24 -117 -87 -138 -134 -10
-22 -12 25 -15 256 l-2 282 -100 0 -100 0 0 -287z m-219 -252 c53 -53 43 -61
-76 -61 -97 0 -105 2 -105 19 0 34 56 71 107 71 36 0 50 -6 74 -29z m818 -25
c109 -57 78 -233 -44 -251 -83 -13 -143 34 -152 118 -12 107 100 182 196 133z
m631 -111 l0 -124 -37 -7 c-55 -10 -63 8 -63 143 l0 113 50 0 50 0 0 -125z
m621 102 c95 -63 64 -222 -46 -243 -116 -21 -203 93 -150 197 35 67 131 90
196 46z m-1851 -197 c0 -33 -4 -60 -10 -60 -5 0 -36 14 -69 31 l-59 31 -36
-27 c-70 -53 -188 -39 -222 26 -31 60 -34 59 191 59 l205 0 0 -60z"/>
<path d="M590 3635 l0 -465 108 0 107 0 -2 462 -3 463 -105 3 -105 3 0 -466z"/>
<path d="M4513 4068 c-38 -41 -47 -78 -29 -121 20 -50 60 -77 113 -77 38 0 50
5 79 34 29 29 34 41 34 81 0 40 -5 52 -34 81 -29 29 -41 34 -83 34 -42 0 -53
-4 -80 -32z"/>
<path d="M7100 3635 l0 -465 105 0 105 0 2 183 3 182 140 -182 140 -183 133 0
c104 0 132 3 126 13 -5 6 -74 92 -156 189 l-147 176 53 31 c100 56 150 172
129 298 -14 79 -48 132 -112 172 -66 42 -128 51 -336 51 l-185 0 0 -465z m339
282 c48 -17 74 -56 74 -110 -2 -83 -36 -112 -138 -118 l-60 -4 -3 109 c-1 61
0 116 2 123 7 16 78 16 125 0z"/>
<path d="M9634 4066 c-29 -29 -34 -41 -34 -81 0 -40 5 -52 34 -81 29 -29 41
-34 81 -34 40 0 52 5 81 34 29 29 34 41 34 81 0 40 -5 52 -34 81 -29 29 -41
34 -81 34 -40 0 -52 -5 -81 -34z"/>
<path d="M1510 3855 l0 -105 -40 0 -40 0 0 -40 c0 -39 -13 -54 -23 -27 -2 7
-28 25 -57 41 -94 51 -232 45 -285 -14 -25 -28 -35 -25 -35 10 l0 31 -97 -3
-98 -3 -3 -287 -2 -288 100 0 100 0 0 165 c0 180 8 218 53 248 58 38 119 30
154 -22 15 -22 18 -53 21 -208 l4 -183 100 0 99 0 -3 210 -3 210 27 0 26 0 4
-152 c3 -141 5 -156 28 -197 14 -25 39 -53 57 -64 48 -27 129 -33 197 -13 55
16 58 18 51 44 -3 15 -9 37 -12 49 -4 17 3 14 38 -19 68 -65 118 -83 229 -83
88 0 101 3 162 33 39 19 80 49 98 70 l30 37 0 -63 0 -62 100 0 100 0 0 160 c0
181 9 219 59 244 38 20 81 20 128 1 20 -8 37 -14 38 -13 1 2 10 17 18 33 15
28 16 17 17 -197 l0 -228 100 0 100 0 0 179 c0 178 0 180 26 210 36 43 91 58
133 36 53 -27 61 -62 61 -255 l0 -170 100 0 100 0 0 72 0 71 30 -41 c96 -133
286 -161 398 -59 l22 20 0 -31 0 -32 100 0 100 0 0 210 0 210 29 0 29 0 4
-147 c5 -162 15 -199 64 -245 44 -41 109 -55 194 -40 39 7 111 12 160 12 l90
0 0 98 1 97 21 -40 c42 -82 111 -136 205 -160 167 -44 332 10 413 133 l35 54
3 -91 3 -91 99 0 100 0 0 179 c0 177 0 180 25 210 56 65 144 59 178 -12 14
-28 17 -67 17 -206 l0 -171 100 0 100 0 0 72 0 71 29 -39 c43 -60 86 -92 148
-110 92 -27 188 -8 251 49 l22 20 0 -31 0 -32 100 0 100 0 0 290 0 290 -100 0
-100 0 0 -25 c0 -29 -7 -31 -31 -9 -29 26 -90 43 -155 44 -107 0 -185 -40
-238 -125 l-29 -46 -13 36 c-27 80 -102 126 -213 133 -64 4 -84 1 -117 -16
-22 -11 -47 -28 -55 -38 -13 -16 -14 -15 -19 12 l-5 29 -100 0 -100 0 0 -93
c0 -50 -1 -92 -2 -92 -2 0 -11 17 -22 38 -25 49 -83 101 -146 133 -44 21 -63
24 -165 24 -100 0 -121 -3 -161 -23 -67 -33 -126 -87 -154 -141 l-24 -46 -1
103 0 102 -155 0 -155 0 0 105 0 105 -100 0 -100 0 0 -105 0 -105 -130 0 -130
0 0 -25 c0 -29 -7 -31 -31 -9 -44 40 -169 56 -253 33 -43 -12 -129 -87 -153
-133 l-15 -30 -13 38 c-28 81 -102 127 -214 134 -64 4 -84 1 -117 -16 -22 -11
-46 -28 -53 -36 -19 -23 -27 -20 -26 12 l0 27 -162 8 c-150 7 -166 6 -200 -12
-21 -10 -49 -31 -63 -46 l-25 -27 -5 39 -5 38 -97 3 -98 3 0 -93 0 -93 -21 43
c-51 103 -160 158 -298 150 -86 -5 -138 -27 -201 -85 l-40 -35 0 56 0 56 -60
0 -60 0 0 105 0 105 -100 0 -100 0 0 -105z m659 -251 c17 -14 31 -34 31 -45 0
-17 -8 -19 -105 -19 -97 0 -105 2 -105 19 0 33 56 71 105 71 32 0 51 -7 74
-26z m-374 -31 c-22 -58 -28 -114 -17 -168 13 -65 10 -75 -23 -75 -37 0 -45
28 -45 149 l0 111 46 0 c40 0 45 -2 39 -17z m2065 1 c86 -51 80 -193 -10 -239
-59 -31 -138 -8 -175 49 -37 56 -14 153 44 189 34 21 105 21 141 1z m630 -111
l0 -128 -42 0 c-58 0 -68 22 -68 153 l0 102 55 0 55 0 0 -127z m632 87 c40
-39 40 -41 36 -100 -3 -45 -10 -66 -28 -85 -34 -36 -90 -51 -138 -37 -60 18
-85 52 -90 120 -4 52 -1 61 24 91 33 40 55 50 113 50 38 1 49 -4 83 -39z
m1258 24 c40 -24 60 -65 60 -122 0 -133 -171 -181 -245 -68 -37 56 -14 153 44
189 34 21 105 21 141 1z m-3990 -204 c0 -34 -4 -60 -10 -60 -6 0 -38 14 -71
30 l-60 31 -35 -27 c-69 -53 -186 -39 -219 27 -32 60 -35 59 190 59 l205 0 0
-60z"/>
<path d="M3862 2404 c-12 -8 -22 -26 -22 -39 0 -25 33 -55 61 -55 9 0 22 -7
29 -16 11 -12 10 -18 -3 -32 -15 -14 -22 -15 -49 -4 -36 13 -46 9 -28 -13 18
-22 76 -19 100 5 11 11 20 23 20 28 0 17 -32 52 -48 52 -28 0 -62 29 -55 46 5
13 15 15 50 10 48 -6 59 8 17 24 -35 14 -46 13 -72 -6z"/>
<path d="M5821 2406 c-56 -31 -67 -102 -22 -147 33 -32 89 -40 110 -15 10 12
5 14 -34 13 -54 -2 -75 17 -75 70 0 43 35 68 85 59 41 -8 48 9 9 24 -33 13
-44 12 -73 -4z"/>
<path d="M6139 2391 c-82 -83 23 -213 114 -141 51 40 43 126 -14 155 -42 22
-67 18 -100 -14z m91 -11 c50 -27 27 -120 -30 -120 -37 0 -60 24 -60 62 0 55
44 83 90 58z"/>
<path d="M6881 2406 c-16 -19 -10 -168 7 -174 8 -2 12 8 12 32 0 34 2 36 33
36 60 0 88 59 47 100 -23 23 -82 27 -99 6z m84 -46 c0 -21 -5 -26 -32 -28 -31
-3 -33 -1 -33 28 0 29 2 31 33 28 27 -2 32 -7 32 -28z"/>
<path d="M7246 2389 c-8 -19 -24 -56 -35 -82 -12 -27 -21 -55 -21 -63 0 -22
16 -16 28 11 9 20 19 25 47 25 28 0 38 -5 47 -25 12 -27 28 -33 28 -11 0 17
-58 157 -71 170 -5 6 -14 -4 -23 -25z m44 -76 c0 -7 -11 -13 -25 -13 -29 0
-28 -2 -14 40 l12 33 13 -24 c7 -13 13 -30 14 -36z"/>
<path d="M8183 2408 c-12 -6 -29 -26 -38 -45 -13 -28 -14 -40 -5 -68 22 -67
85 -84 139 -39 78 65 -6 198 -96 152z m79 -35 c22 -20 24 -76 2 -97 -35 -36
-104 -7 -104 43 0 61 60 92 102 54z"/>
<path d="M4160 2400 c0 -5 11 -10 25 -10 23 0 24 -3 27 -77 2 -50 7 -78 16
-81 9 -3 12 17 12 77 l0 81 30 0 c17 0 30 5 30 10 0 6 -30 10 -70 10 -40 0
-70 -4 -70 -10z"/>
<path d="M4500 2347 c0 -78 24 -117 71 -117 50 0 69 30 69 110 0 40 -4 70 -10
70 -6 0 -10 -28 -10 -64 0 -55 -3 -67 -21 -80 -14 -9 -29 -12 -43 -7 -18 7
-22 18 -26 76 -3 42 -10 70 -17 73 -10 3 -13 -14 -13 -61z"/>
<path d="M4860 2320 l0 -90 49 0 c65 0 91 22 98 80 4 36 1 51 -17 73 -19 23
-28 27 -76 27 l-54 0 0 -90z m104 54 c19 -18 21 -85 4 -102 -7 -7 -29 -12 -50
-12 l-38 0 0 65 0 65 34 0 c19 0 42 -7 50 -16z"/>
<path d="M5200 2402 c0 -5 13 -26 30 -48 22 -29 30 -50 30 -81 0 -24 5 -43 10
-43 6 0 10 18 10 41 0 29 9 53 30 84 34 49 36 55 17 55 -7 0 -21 -13 -30 -30
-10 -16 -22 -30 -26 -30 -4 0 -17 14 -29 30 -22 29 -42 39 -42 22z"/>
<path d="M6490 2320 c0 -53 4 -90 10 -90 6 0 10 27 10 60 0 33 4 60 10 60 6 0
10 -3 10 -7 0 -5 11 -21 24 -37 l23 -29 26 38 26 38 3 -58 c2 -36 8 -60 16
-63 9 -3 12 19 12 87 0 106 -10 115 -53 46 -16 -25 -30 -45 -32 -45 -2 0 -16
20 -32 45 -43 69 -53 60 -53 -45z"/>
<path d="M7542 2325 c3 -96 23 -115 23 -22 0 31 2 57 5 57 3 -1 27 -30 54 -65
26 -36 52 -65 57 -65 5 0 9 41 9 90 0 104 -18 123 -22 24 l-3 -66 -50 66 c-67
90 -76 87 -73 -19z"/>
<path d="M7909 2406 c-8 -8 3 -176 12 -176 5 0 9 41 9 90 0 79 -5 101 -21 86z"/>
<path d="M8512 2325 c4 -100 22 -119 26 -26 l3 64 51 -67 c28 -36 55 -66 59
-66 5 0 9 41 9 90 0 104 -18 123 -22 24 l-3 -66 -48 66 c-67 91 -79 88 -75
-19z"/>
</g>
</svg>
